<?xml version="1.0" encoding="UTF-8" standalone="no"?>
<svg
   xmlns:dc="http://purl.org/dc/elements/1.1/"
   xmlns:cc="http://creativecommons.org/ns#"
   xmlns:rdf="http://www.w3.org/1999/02/22-rdf-syntax-ns#"
   xmlns:svg="http://www.w3.org/2000/svg"
   xmlns="http://www.w3.org/2000/svg"
   xmlns:xlink="http://www.w3.org/1999/xlink"
   id="svg31"
   version="1.1"
   data-lt-installed="true"
   height="177"
   width="256">
  <metadata
     id="metadata35">
    <rdf:RDF>
      <cc:Work
         rdf:about="">
        <dc:format>image/svg+xml</dc:format>
        <dc:type
           rdf:resource="http://purl.org/dc/dcmitype/StillImage" />
        <dc:title></dc:title>
      </cc:Work>
    </rdf:RDF>
  </metadata>
  <defs
     id="defs3">
    <path
       transform="matrix(3.8026459,2.632586,-2.632586,3.8026459,0,0)"
       d="M 0,12 A 16.143,16.143 0 0 1 -14,-4 7,8 0 0 1 -2.05,-9.657 Q -1,-8.457 -1,-5 a 1,1 0 1 0 2,0 Q 1,-8.457 2.05,-9.657 A 7,8 0 0 1 14,-4 16.143,16.143 0 0 1 0,12 Z"
       id="pomp" />
  </defs>
  <g
     transform="matrix(0.28131868,0,0,0.28095238,0,105.07619)"
     id="g3753">
    <rect
       width="910"
       height="630"
       id="rect5"
       x="0"
       y="-374"
       style="fill:#0155a5" />
    <g
       transform="matrix(130,0,0,90,0,-374)"
       id="g13"
       style="fill:#ffffff">
      <path
         d="M 0,3 V 5 L 2,7 H 4 Z"
         id="path7" />
      <path
         d="M 1,0 H 0 V 1 L 6,7 H 7 V 6 Z"
         id="path9" />
      <path
         d="M 3,0 H 5 L 7,2 V 4 Z"
         id="path11" />
    </g>
    <g
       id="g29"
       style="fill:#ee3e34"
       transform="translate(0,-374)">
      <use
         xlink:href="#pomp"
         x="455"
         y="315"
         id="use15"
         width="100%"
         height="100%" />
      <use
         xlink:href="#pomp"
         x="91"
         y="423"
         id="use17"
         width="100%"
         height="100%" />
      <use
         xlink:href="#pomp"
         x="819"
         y="207"
         id="use19"
         width="100%"
         height="100%" />
      <use
         xlink:href="#pomp"
         x="212.33299"
         y="147"
         id="use21"
         width="100%"
         height="100%" />
      <use
         xlink:href="#pomp"
         x="697.66699"
         y="483"
         id="use23"
         width="100%"
         height="100%" />
      <use
         xlink:href="#pomp"
         x="661.315"
         y="97.834"
         id="use25"
         width="100%"
         height="100%" />
      <use
         xlink:href="#pomp"
         x="248.685"
         y="532.16602"
         id="use27"
         width="100%"
         height="100%" />
    </g>
  </g>
</svg>
